<svg width="101" height="30" viewBox="0 0 101 30" fill="none" xmlns="http://www.w3.org/2000/svg">
<path fill-rule="evenodd" clip-rule="evenodd" d="M88.6249 2.64612C88.6249 4.04888 87.4826 5.22848 86.0229 5.22848C84.595 5.22848 83.421 4.04888 83.421 2.64612C83.421 1.1796 84.595 0 86.0229 0C87.4826 0 88.6249 1.1796 88.6249 2.64612ZM17.7059 23.4644V19.2561H5.64813L17.5473 4.97343V0.860786H0.412504V5.03719H11.7088L0 19.1923V23.4644H17.7059ZM27.9551 23.9426C31.7945 23.9426 34.2696 21.6791 35.0628 18.9692L31.5407 17.9171C31.033 19.3199 29.9541 20.3082 27.9868 20.3082C25.8926 20.3082 24.1473 18.8098 24.0522 16.7375H35.2215C35.2215 16.7219 35.2253 16.6718 35.231 16.5963L35.2311 16.5962L35.2311 16.5959C35.2488 16.3628 35.285 15.8875 35.285 15.4304C35.285 10.3932 32.3974 7.30074 27.5743 7.30074C23.5762 7.30074 19.8954 10.5526 19.8954 15.5579C19.8954 20.8502 23.6714 23.9426 27.9551 23.9426ZM24.1473 13.8363H31.1282C31.0647 12.2742 30.0493 10.7439 27.6378 10.7439C25.4483 10.7439 24.2425 12.4017 24.1473 13.8363ZM42.8369 23.4644V14.4421C42.8369 12.6249 43.9158 11.1902 45.7562 11.1902C47.787 11.1902 48.6437 12.5611 48.6437 14.3146V23.4644H52.864V13.5813C52.864 10.1382 51.087 7.36451 47.2158 7.36451C45.5341 7.36451 43.662 8.09777 42.71 9.7237V7.77896H38.6167V23.4644H42.8369ZM71.8074 21.7747C71.8074 26.0786 69.491 30 63.6208 30C59.3371 30 56.4813 27.322 56.0371 24.3252L59.8448 23.305C60.1304 25.0266 61.4948 26.2699 63.4939 26.2699C66.1593 26.2699 67.6506 24.9309 67.6506 21.9022V20.7545C67.016 21.7747 65.5564 22.763 63.3035 22.763C59.1467 22.763 56.0371 19.543 56.0371 15.1435C56.0371 10.9989 59.0198 7.49203 63.3035 7.49203C65.7785 7.49203 67.2064 8.57598 67.7458 9.62806V7.77896H71.8074V21.7747ZM64.0333 19.1286C61.8439 19.1286 60.289 17.5983 60.289 15.1435C60.289 12.7205 61.9391 11.1902 64.0333 11.1902C66.0641 11.1902 67.7141 12.7205 67.7141 15.1435C67.7141 17.5664 66.191 19.1286 64.0333 19.1286ZM88.1489 23.4644V7.77896H83.9287V23.4644H88.1489ZM101 23.305C100.619 23.4644 99.8577 23.6876 98.6202 23.6876C95.574 23.6876 93.6701 21.8703 93.6701 18.8417V11.5409H90.8461V7.77896H91.6393C93.2893 7.77896 94.0509 6.69501 94.0509 5.29224V3.09245H97.8586V7.77896H101V11.5409H97.8586V18.1084C97.8586 19.4793 98.4932 19.9256 99.699 19.9256C100.207 19.9256 100.778 19.8619 101 19.7981V23.305Z" fill="#6B46C1"/>
</svg>
